<?xml version="1.0" standalone="no"?>
<!DOCTYPE svg PUBLIC "-//W3C//DTD SVG 20010904//EN"
 "http://www.w3.org/TR/2001/REC-SVG-20010904/DTD/svg10.dtd">
<svg version="1.0" xmlns="http://www.w3.org/2000/svg"
 width="24.000000pt" height="24.000000pt" viewBox="0 0 24.000000 24.000000"
 preserveAspectRatio="xMidYMid meet">

<g transform="translate(0.000000,24.000000) scale(0.100000,-0.100000)"
fill="#ffffff" stroke="none">
<path d="M44 207 c-3 -8 -4 -52 -2 -98 l3 -84 38 -3 c21 -2 37 1 37 7 0 6 -13
11 -30 11 l-30 0 0 80 0 80 35 0 c31 0 35 -3 35 -25 0 -20 5 -25 25 -25 14 0
25 -4 25 -10 0 -5 5 -10 10 -10 20 0 9 27 -23 58 -27 26 -41 32 -75 32 -26 0
-45 -5 -48 -13z"/>
<path d="M172 77 c-34 -35 -41 -57 -19 -57 19 0 80 67 73 79 -11 17 -20 13
-54 -22z m18 -16 c0 -12 -20 -25 -27 -18 -7 7 6 27 18 27 5 0 9 -4 9 -9z"/>
</g>
</svg>
