<svg width="138" height="78" viewBox="0 0 138 78" fill="none" xmlns="http://www.w3.org/2000/svg">
<path d="M17.3283 42.5136C16.722 42.58 16.1082 42.4992 15.5426 42.2784C14.9771 42.0577 14.4778 41.7041 14.0902 41.2498C13.7891 40.7184 13.6194 40.1271 13.5944 39.5221C13.5694 38.9171 13.6897 38.3146 13.946 37.7618L19.2947 22.1798H22.0347L20.278 27.1084H25.3776L24.5124 29.6359H19.4127L16.6466 37.825C16.5298 38.0642 16.4692 38.3253 16.4692 38.5896C16.4692 38.8539 16.5298 39.115 16.6466 39.3542C16.7968 39.5459 16.9978 39.6952 17.2284 39.7864C17.4591 39.8776 17.7109 39.9072 17.9576 39.8723H21.0777L20.1993 42.3998L17.3283 42.5136Z" fill="url(#paint0_linear_8071_197571)"/>
<path d="M27.8553 42.8042C26.9353 42.8622 26.0163 42.6762 25.1981 42.2663C24.38 41.8563 23.6939 41.2382 23.2145 40.4789C22.7292 39.608 22.4483 38.645 22.3917 37.658C22.335 36.6709 22.5041 35.6839 22.8868 34.7667C23.6213 32.5357 25.0266 30.5651 26.9246 29.1051C28.629 27.6642 30.8064 26.8496 33.073 26.8051C33.9878 26.7433 34.9027 26.9223 35.7202 27.323C36.5376 27.7237 37.2267 28.3309 37.7138 29.0799C38.1957 29.9518 38.4747 30.9146 38.5313 31.9011C38.5879 32.8876 38.4208 33.8741 38.0416 34.792L35.4983 42.5136H32.8763L33.427 40.8201H33.3483C32.5527 41.3565 31.7054 41.8178 30.8181 42.1976C29.8861 42.5994 28.8763 42.8061 27.8553 42.8042ZM32.234 29.3958C30.7725 29.4445 29.3774 29.9959 28.3011 30.9502C26.9969 31.9367 26.0327 33.2803 25.5349 34.8047C25.2784 35.4266 25.1666 36.0953 25.2074 36.7635C25.2481 37.4316 25.4405 38.083 25.7709 38.6717C26.0511 39.1598 26.4671 39.5627 26.972 39.8351C27.477 40.1075 28.0508 40.2386 28.6288 40.2135C29.3717 40.2169 30.1076 40.0751 30.7919 39.7965C31.5885 39.4409 32.3333 38.9863 33.0074 38.4443L34.5151 37.269L35.3147 34.8047C35.554 34.1949 35.6634 33.545 35.6364 32.8936C35.6094 32.2422 35.4465 31.6027 35.1574 31.0134C34.8872 30.4981 34.4663 30.0703 33.9468 29.7828C33.4273 29.4954 32.8319 29.3608 32.234 29.3958Z" fill="url(#paint1_linear_8071_197571)"/>
<path d="M44.675 42.8042C43.7554 42.8594 42.8374 42.6722 42.0198 42.2625C41.2022 41.8528 40.5158 41.2362 40.0342 40.4789C39.551 39.6071 39.2724 38.6436 39.218 37.6565C39.1636 36.6695 39.3349 35.683 39.7196 34.7667L44.4128 20.4231H47.0348L44.308 28.7639H44.3866C45.1897 28.232 46.0409 27.771 46.9299 27.3864C47.8615 27.0027 48.8667 26.8132 49.8796 26.8304C50.8004 26.7643 51.7225 26.9412 52.547 27.3419C53.3715 27.7426 54.0673 28.3522 54.5597 29.1051C55.0441 29.9715 55.3256 30.9296 55.3845 31.9121C55.4433 32.8946 55.2782 33.8777 54.9006 34.792C54.1672 37.0372 52.7514 39.0184 50.8366 40.4789C49.1271 41.9234 46.9474 42.7459 44.675 42.8042ZM42.3808 34.8047C42.1355 35.4131 42.0228 36.0638 42.0499 36.7161C42.077 37.3684 42.2432 38.0083 42.5382 38.5959C42.819 39.1134 43.2531 39.5387 43.7854 39.8178C44.3176 40.0968 44.9239 40.217 45.5272 40.163C46.9606 40.1043 48.326 39.5581 49.3814 38.6212C50.6932 37.6363 51.659 36.2862 52.1475 34.7541C52.4102 34.1356 52.5254 33.4681 52.4846 32.801C52.4437 32.1338 52.2479 31.4841 51.9116 30.8997C51.6353 30.4103 51.2224 30.0053 50.7196 29.7305C50.2168 29.4558 49.6442 29.3223 49.0668 29.3452C48.3238 29.3408 47.5877 29.4827 46.9037 29.7623C46.1027 30.1223 45.3535 30.5811 44.675 31.1271L43.1805 32.3024L42.3808 34.8047Z" fill="url(#paint2_linear_8071_197571)"/>
<path d="M76.3087 41.6668L79.3763 32.5931C79.5866 32.129 79.6841 31.6248 79.6614 31.1188C79.6387 30.6129 79.4963 30.1186 79.2452 29.6738C78.9962 29.303 78.648 29.0039 78.2372 28.8082C77.8265 28.6124 77.3685 28.5273 76.9117 28.5617C75.783 28.5814 74.6954 28.974 73.8309 29.6738C72.8343 30.4134 72.1012 31.4337 71.7334 32.5931L68.6657 41.6668H65.9258L69.0328 32.4541C69.665 30.6091 70.874 28.9978 72.4937 27.8414C73.9851 26.693 75.8291 26.0531 77.7376 26.0216C78.5305 25.9535 79.3282 26.0855 80.0523 26.4045C80.7763 26.7236 81.4017 27.2188 81.8671 27.8414C82.2898 28.5426 82.5371 29.3292 82.5894 30.1387C82.6418 30.9481 82.4977 31.7582 82.1687 32.5046L79.0486 41.7174L76.3087 41.6668Z" fill="url(#paint3_linear_8071_197571)"/>
<path d="M88.658 41.9701C87.6537 42.0436 86.6464 41.8713 85.7296 41.4692C84.8129 41.0672 84.0164 40.4483 83.4141 39.6701C82.8629 38.8334 82.5277 37.8816 82.4365 36.8944C82.3452 35.9072 82.5007 34.9133 82.8897 33.9959C83.6812 31.7425 85.1564 29.7701 87.1241 28.3342C89.0279 26.8353 91.4045 26.0063 93.8625 25.9837C95.1897 25.9468 96.4971 26.2994 97.6119 26.9947C98.6094 27.6515 99.341 28.6202 99.6832 29.737L99.8667 30.3562L85.9574 37.8124C86.3178 38.3262 86.8106 38.7409 87.3875 39.0156C87.9644 39.2904 88.6055 39.4157 89.2479 39.3794C90.8529 39.3532 92.4048 38.8205 93.6658 37.8629C94.9813 36.987 95.9731 35.7298 96.4975 34.2739L96.7597 33.503H99.5914L99.3292 34.2739C98.5502 36.4544 97.0834 38.3456 95.1341 39.6828C93.2951 41.1111 91.0189 41.915 88.658 41.9701ZM92.9448 28.5617C91.3119 28.5787 89.7377 29.1516 88.5006 30.1793C87.1617 31.1658 86.1614 32.5175 85.6296 34.059C85.4634 34.4988 85.3576 34.9577 85.315 35.4239L95.96 29.7496C95.5921 29.3342 95.1265 29.0096 94.602 28.8029C94.0774 28.5963 93.5093 28.5136 92.9448 28.5617Z" fill="url(#paint4_linear_8071_197571)"/>
<path d="M117.709 41.6668C117.103 41.7333 116.489 41.6524 115.923 41.4317C115.358 41.211 114.858 40.8574 114.471 40.4031C114.173 39.873 114.005 39.2841 113.98 38.6816C113.955 38.0791 114.073 37.4791 114.327 36.9278L119.203 22.4578H121.943L120.567 26.5776H125.68L124.801 29.1051H119.702L117.08 37.0541C116.963 37.2911 116.903 37.5501 116.903 37.8124C116.903 38.0747 116.963 38.3337 117.08 38.5706C117.233 38.7594 117.434 38.9065 117.664 38.9974C117.894 39.0882 118.144 39.1197 118.391 39.0888H121.498L120.619 41.6163L117.709 41.6668Z" fill="url(#paint5_linear_8071_197571)"/>
<path d="M113.815 29.1051H115.467L116.385 26.3628H113.894C113.154 26.3132 112.412 26.4198 111.719 26.6751C111.026 26.9305 110.399 27.3285 109.882 27.8414C109.199 28.4861 108.592 29.2024 108.073 29.9771C108.07 29.257 107.937 28.5428 107.68 27.8666C107.129 26.4639 106.212 26.4512 104.678 26.3501H102.187L101.256 29.1051H102.934C103.983 29.1051 106.395 29.1051 104.835 33.7936C103.275 38.4822 100.824 38.4822 99.7749 38.4822H98.0969L97.1792 41.2119H99.7356C100.461 41.2612 101.19 41.1567 101.869 40.9056C102.549 40.6545 103.163 40.263 103.668 39.7586C104.349 39.1155 104.955 38.4037 105.478 37.6355C105.482 38.3514 105.615 39.0612 105.871 39.7333C106.435 41.1361 107.339 41.1487 108.873 41.2498H111.377L112.295 38.5201H110.617C109.568 38.5201 107.169 38.5201 108.729 33.8316C110.289 29.143 112.767 29.1051 113.815 29.1051Z" fill="url(#paint6_linear_8071_197571)"/>
<path d="M10 49.5147H49.5518C57.5356 49.5147 58.7286 46.4438 63.0417 35.0321C63.5923 33.5788 64.1953 31.9612 64.877 30.192C69.6883 17.6682 75.6007 18.8182 78.2751 18.8182H127.043L128 16H78.1047C74.1062 16 67.1843 16 61.9536 29.6106C61.2719 31.4052 60.6426 33.0228 60.1051 34.4887C58.0469 39.9608 56.6048 42.6399 55.2283 44.2954C54.0747 45.6729 52.9079 46.7471 49.5387 46.7471H10.957L10 49.5147Z" fill="url(#paint7_linear_8071_197571)"/>
<path d="M15.0145 58.874C15.073 58.874 15.1238 58.8968 15.1669 58.9425L15.5963 59.4041C15.3254 59.7271 14.9929 59.9769 14.5989 60.1536C14.2049 60.3273 13.7339 60.4141 13.186 60.4141C12.6996 60.4141 12.2594 60.3319 11.8654 60.1674C11.4745 59.9998 11.1405 59.7682 10.8635 59.4727C10.5864 59.1741 10.3725 58.8191 10.2216 58.4078C10.0739 57.9965 10 57.5441 10 57.0505C10 56.5569 10.0785 56.1045 10.2355 55.6931C10.3956 55.2788 10.6187 54.9238 10.905 54.6283C11.1944 54.3297 11.5391 54.0981 11.9393 53.9336C12.3426 53.7691 12.7858 53.6868 13.2691 53.6868C13.7493 53.6868 14.1726 53.7645 14.5389 53.9199C14.9083 54.0722 15.2284 54.2764 15.4993 54.5323L15.1438 55.0305C15.1191 55.064 15.0899 55.0929 15.056 55.1173C15.0222 55.1417 14.976 55.1539 14.9175 55.1539C14.856 55.1539 14.7852 55.1264 14.7051 55.0716C14.6282 55.0137 14.5281 54.9512 14.405 54.8842C14.2849 54.8141 14.1326 54.7517 13.9479 54.6968C13.7663 54.6389 13.5385 54.61 13.2645 54.61C12.9474 54.61 12.6565 54.6648 12.3918 54.7745C12.1271 54.8842 11.8993 55.0442 11.7084 55.2544C11.5176 55.4646 11.3683 55.7206 11.2605 56.0222C11.1559 56.3238 11.1036 56.6666 11.1036 57.0505C11.1036 57.4374 11.159 57.7832 11.2698 58.0879C11.3806 58.3895 11.533 58.6455 11.7269 58.8557C11.9208 59.0629 12.1486 59.2213 12.4103 59.331C12.6719 59.4407 12.9536 59.4955 13.2553 59.4955C13.44 59.4955 13.6046 59.4864 13.7493 59.4681C13.8971 59.4468 14.0325 59.4148 14.1557 59.3721C14.2788 59.3264 14.3942 59.2701 14.502 59.203C14.6128 59.136 14.7221 59.0538 14.8298 58.9563C14.8914 58.9014 14.9529 58.874 15.0145 58.874Z" fill="url(#paint8_linear_8071_197571)"/>
<path d="M17.3561 53.5771V60.341H16.3633V53.5771H17.3561Z" fill="url(#paint9_linear_8071_197571)"/>
<path d="M19.6157 55.6794V60.341H18.623V55.6794H19.6157ZM19.7819 54.2718C19.7819 54.3602 19.7635 54.4439 19.7265 54.5232C19.6927 54.6024 19.645 54.6725 19.5834 54.7334C19.5218 54.7913 19.4495 54.8385 19.3664 54.8751C19.2863 54.9086 19.2002 54.9253 19.1078 54.9253C19.0185 54.9253 18.9339 54.9086 18.8538 54.8751C18.7769 54.8385 18.7092 54.7913 18.6507 54.7334C18.5922 54.6725 18.5445 54.6024 18.5075 54.5232C18.4737 54.4439 18.4568 54.3602 18.4568 54.2718C18.4568 54.1804 18.4737 54.0951 18.5075 54.0159C18.5445 53.9367 18.5922 53.8681 18.6507 53.8102C18.7092 53.7493 18.7769 53.7021 18.8538 53.6685C18.9339 53.632 19.0185 53.6137 19.1078 53.6137C19.2002 53.6137 19.2863 53.632 19.3664 53.6685C19.4495 53.7021 19.5218 53.7493 19.5834 53.8102C19.645 53.8681 19.6927 53.9367 19.7265 54.0159C19.7635 54.0951 19.7819 54.1804 19.7819 54.2718Z" fill="url(#paint10_linear_8071_197571)"/>
<path d="M21.7912 56.2964C21.8927 56.1928 21.9974 56.0999 22.1051 56.0176C22.216 55.9323 22.3329 55.8592 22.4561 55.7983C22.5792 55.7373 22.71 55.6901 22.8485 55.6566C22.9871 55.6231 23.1379 55.6063 23.301 55.6063C23.5596 55.6063 23.7859 55.649 23.9798 55.7343C24.1768 55.8196 24.3415 55.9399 24.4739 56.0953C24.6093 56.2507 24.7109 56.4381 24.7786 56.6574C24.8463 56.8738 24.8802 57.1129 24.8802 57.375V60.341H23.8921V57.375C23.8921 57.0611 23.8182 56.8174 23.6704 56.6437C23.5258 56.4701 23.3041 56.3832 23.0055 56.3832C22.7839 56.3832 22.5777 56.4335 22.3868 56.5341C22.199 56.6346 22.022 56.7717 21.8558 56.9454V60.341H20.8631V55.6794H21.4633C21.5988 55.6794 21.685 55.7419 21.7219 55.8668L21.7912 56.2964Z" fill="url(#paint11_linear_8071_197571)"/>
<path d="M27.0739 55.6794V60.341H26.0811V55.6794H27.0739ZM27.2401 54.2718C27.2401 54.3602 27.2216 54.4439 27.1847 54.5232C27.1508 54.6024 27.1031 54.6725 27.0416 54.7334C26.98 54.7913 26.9077 54.8385 26.8245 54.8751C26.7445 54.9086 26.6583 54.9253 26.566 54.9253C26.4767 54.9253 26.3921 54.9086 26.312 54.8751C26.2351 54.8385 26.1673 54.7913 26.1089 54.7334C26.0504 54.6725 26.0027 54.6024 25.9657 54.5232C25.9319 54.4439 25.9149 54.3602 25.9149 54.2718C25.9149 54.1804 25.9319 54.0951 25.9657 54.0159C26.0027 53.9367 26.0504 53.8681 26.1089 53.8102C26.1673 53.7493 26.2351 53.7021 26.312 53.6685C26.3921 53.632 26.4767 53.6137 26.566 53.6137C26.6583 53.6137 26.7445 53.632 26.8245 53.6685C26.9077 53.7021 26.98 53.7493 27.0416 53.8102C27.1031 53.8681 27.1508 53.9367 27.1847 54.0159C27.2216 54.0951 27.2401 54.1804 27.2401 54.2718Z" fill="url(#paint12_linear_8071_197571)"/>
<path d="M31.6504 56.5935C31.6196 56.6331 31.5903 56.6635 31.5626 56.6849C31.5349 56.7062 31.4949 56.7169 31.4426 56.7169C31.3903 56.7169 31.3348 56.6986 31.2764 56.662C31.221 56.6255 31.1532 56.5858 31.0732 56.5432C30.9962 56.4975 30.9024 56.4564 30.7915 56.4198C30.6807 56.3832 30.5422 56.365 30.376 56.365C30.1605 56.365 29.9712 56.403 29.808 56.4792C29.648 56.5554 29.5125 56.6651 29.4017 56.8083C29.294 56.9484 29.2124 57.1206 29.157 57.3247C29.1046 57.5258 29.0785 57.7528 29.0785 58.0057C29.0785 58.2677 29.1077 58.5008 29.1662 58.7049C29.2247 58.909 29.3078 59.0812 29.4156 59.2213C29.5264 59.3615 29.6587 59.4681 29.8126 59.5412C29.9696 59.6144 30.1451 59.6509 30.339 59.6509C30.5299 59.6509 30.6853 59.6281 30.8054 59.5824C30.9254 59.5367 31.0255 59.4864 31.1055 59.4316C31.1856 59.3767 31.2533 59.3264 31.3087 59.2807C31.3672 59.235 31.4287 59.2122 31.4934 59.2122C31.5734 59.2122 31.635 59.2427 31.6781 59.3036L31.9597 59.6646C31.8458 59.8017 31.7196 59.9175 31.5811 60.012C31.4426 60.1064 31.2964 60.1841 31.1425 60.245C30.9885 60.3029 30.8285 60.3441 30.6622 60.3684C30.496 60.3959 30.3283 60.4096 30.159 60.4096C29.8665 60.4096 29.5926 60.3563 29.3371 60.2496C29.0846 60.1399 28.863 59.983 28.6722 59.7789C28.4844 59.5717 28.3351 59.3203 28.2243 59.0248C28.1165 58.7262 28.0627 58.3865 28.0627 58.0057C28.0627 57.6614 28.1119 57.343 28.2104 57.0505C28.3089 56.7549 28.4521 56.5005 28.6398 56.2873C28.8307 56.074 29.0662 55.9079 29.3463 55.7891C29.6264 55.6672 29.9496 55.6063 30.3159 55.6063C30.6576 55.6063 30.9578 55.6611 31.2163 55.7708C31.478 55.8805 31.7104 56.0359 31.9136 56.237L31.6504 56.5935Z" fill="url(#paint13_linear_8071_197571)"/>
<path d="M35.2747 58.3027C34.9207 58.3149 34.6221 58.3438 34.379 58.3895C34.1358 58.4322 33.9388 58.4886 33.7879 58.5586C33.6371 58.6257 33.5278 58.7064 33.4601 58.8009C33.3955 58.8953 33.3631 58.9989 33.3631 59.1116C33.3631 59.2213 33.3801 59.3158 33.4139 59.395C33.4509 59.4712 33.5001 59.5351 33.5617 59.5869C33.6263 59.6357 33.7002 59.6723 33.7833 59.6966C33.8695 59.718 33.9634 59.7286 34.065 59.7286C34.3236 59.7286 34.5452 59.6814 34.7299 59.5869C34.9177 59.4894 35.0993 59.3493 35.2747 59.1665V58.3027ZM32.6428 56.3284C33.1754 55.8379 33.8095 55.5926 34.5452 55.5926C34.8161 55.5926 35.0562 55.6368 35.2655 55.7251C35.4779 55.8104 35.6549 55.9323 35.7965 56.0907C35.9412 56.2492 36.0505 56.4381 36.1243 56.6574C36.2013 56.8738 36.2398 57.1145 36.2398 57.3795V60.341H35.7965C35.7011 60.341 35.6287 60.3273 35.5795 60.2999C35.5302 60.2694 35.4887 60.21 35.4548 60.1217L35.3578 59.7423C35.2378 59.849 35.1193 59.9449 35.0023 60.0302C34.8853 60.1125 34.7637 60.1826 34.6375 60.2405C34.5144 60.2984 34.3805 60.341 34.2358 60.3684C34.0942 60.3989 33.9372 60.4141 33.7648 60.4141C33.574 60.4141 33.3955 60.3882 33.2292 60.3364C33.0661 60.2847 32.9245 60.207 32.8044 60.1034C32.6844 59.9967 32.589 59.8657 32.5182 59.7103C32.4504 59.555 32.4166 59.3721 32.4166 59.1619C32.4166 58.9822 32.4643 58.807 32.5597 58.6363C32.6582 58.4657 32.8183 58.3134 33.0399 58.1793C33.2646 58.0422 33.5586 57.9295 33.9218 57.8411C34.2882 57.7528 34.7391 57.7025 35.2747 57.6903V57.3795C35.2747 57.0444 35.2024 56.7946 35.0577 56.63C34.913 56.4655 34.7006 56.3832 34.4205 56.3832C34.2297 56.3832 34.0696 56.4076 33.9403 56.4564C33.811 56.5021 33.6987 56.5523 33.6032 56.6072C33.5078 56.662 33.4232 56.7138 33.3493 56.7626C33.2754 56.8083 33.1969 56.8311 33.1138 56.8311C33.0461 56.8311 32.9876 56.8144 32.9383 56.7808C32.8922 56.7443 32.8537 56.7001 32.8229 56.6483L32.6428 56.3284Z" fill="url(#paint14_linear_8071_197571)"/>
<path d="M38.4139 53.5771V60.341H37.4212V53.5771H38.4139Z" fill="url(#paint15_linear_8071_197571)"/>
<path d="M49.1975 53.7599V60.341H48.2463V55.8302C48.2463 55.7571 48.2478 55.6779 48.2509 55.5926C48.2571 55.5042 48.2648 55.4159 48.274 55.3275L46.1361 59.235C46.053 59.3965 45.9253 59.4773 45.7529 59.4773H45.6005C45.4251 59.4773 45.2973 59.3965 45.2173 59.235L43.0471 55.3184C43.0563 55.4067 43.0625 55.4951 43.0656 55.5835C43.0717 55.6718 43.0748 55.7541 43.0748 55.8302V60.341H42.1236V53.7599H42.9317C43.0271 53.7599 43.101 53.7691 43.1533 53.7874C43.2056 53.8026 43.2533 53.8529 43.2964 53.9382L45.4297 57.7634C45.4759 57.8518 45.5189 57.9432 45.559 58.0376C45.6021 58.129 45.6405 58.2235 45.6744 58.321C45.7113 58.2235 45.7498 58.1275 45.7898 58.0331C45.8329 57.9356 45.8776 57.8426 45.9237 57.7543L48.0246 53.9382C48.0677 53.8529 48.1155 53.8026 48.1678 53.7874C48.2201 53.7691 48.294 53.7599 48.3894 53.7599H49.1975Z" fill="url(#paint16_linear_8071_197571)"/>
<path d="M52.9777 58.3027C52.6237 58.3149 52.3251 58.3438 52.082 58.3895C51.8388 58.4322 51.6418 58.4886 51.4909 58.5586C51.3401 58.6257 51.2308 58.7064 51.1631 58.8009C51.0985 58.8953 51.0661 58.9989 51.0661 59.1116C51.0661 59.2213 51.0831 59.3158 51.1169 59.395C51.1539 59.4712 51.2031 59.5351 51.2647 59.5869C51.3293 59.6357 51.4032 59.6723 51.4863 59.6966C51.5725 59.718 51.6664 59.7286 51.768 59.7286C52.0266 59.7286 52.2482 59.6814 52.4329 59.5869C52.6207 59.4894 52.8023 59.3493 52.9777 59.1665V58.3027ZM50.3458 56.3284C50.8784 55.8379 51.5125 55.5926 52.2482 55.5926C52.5191 55.5926 52.7592 55.6368 52.9685 55.7251C53.1809 55.8104 53.3579 55.9323 53.4995 56.0907C53.6442 56.2492 53.7535 56.4381 53.8273 56.6574C53.9043 56.8738 53.9428 57.1145 53.9428 57.3795V60.341H53.4995C53.4041 60.341 53.3317 60.3273 53.2825 60.2999C53.2332 60.2694 53.1917 60.21 53.1578 60.1217L53.0609 59.7423C52.9408 59.849 52.8223 59.9449 52.7053 60.0302C52.5883 60.1125 52.4667 60.1826 52.3405 60.2405C52.2174 60.2984 52.0835 60.341 51.9388 60.3684C51.7972 60.3989 51.6402 60.4141 51.4679 60.4141C51.277 60.4141 51.0985 60.3882 50.9322 60.3364C50.7691 60.2847 50.6275 60.207 50.5074 60.1034C50.3874 59.9967 50.292 59.8657 50.2212 59.7103C50.1534 59.555 50.1196 59.3721 50.1196 59.1619C50.1196 58.9822 50.1673 58.807 50.2627 58.6363C50.3612 58.4657 50.5213 58.3134 50.7429 58.1793C50.9676 58.0422 51.2616 57.9295 51.6248 57.8411C51.9912 57.7528 52.4421 57.7025 52.9777 57.6903V57.3795C52.9777 57.0444 52.9054 56.7946 52.7607 56.63C52.616 56.4655 52.4036 56.3832 52.1235 56.3832C51.9327 56.3832 51.7726 56.4076 51.6433 56.4564C51.514 56.5021 51.4017 56.5523 51.3062 56.6072C51.2108 56.662 51.1262 56.7138 51.0523 56.7626C50.9784 56.8083 50.8999 56.8311 50.8168 56.8311C50.7491 56.8311 50.6906 56.8144 50.6413 56.7808C50.5952 56.7443 50.5567 56.7001 50.5259 56.6483L50.3458 56.3284Z" fill="url(#paint17_linear_8071_197571)"/>
<path d="M56.0338 56.2964C56.1354 56.1928 56.24 56.0999 56.3478 56.0176C56.4586 55.9323 56.5756 55.8592 56.6987 55.7983C56.8218 55.7373 56.9527 55.6901 57.0912 55.6566C57.2297 55.6231 57.3805 55.6063 57.5437 55.6063C57.8023 55.6063 58.0285 55.649 58.2224 55.7343C58.4195 55.8196 58.5841 55.9399 58.7165 56.0953C58.852 56.2507 58.9535 56.4381 59.0213 56.6574C59.089 56.8738 59.1228 57.1129 59.1228 57.375V60.341H58.1347V57.375C58.1347 57.0611 58.0608 56.8174 57.9131 56.6437C57.7684 56.4701 57.5468 56.3832 57.2482 56.3832C57.0265 56.3832 56.8203 56.4335 56.6294 56.5341C56.4417 56.6346 56.2647 56.7717 56.0984 56.9454V60.341H55.1057V55.6794H55.706C55.8414 55.6794 55.9276 55.7419 55.9645 55.8668L56.0338 56.2964Z" fill="url(#paint18_linear_8071_197571)"/>
<path d="M62.7987 58.3027C62.4447 58.3149 62.1461 58.3438 61.9029 58.3895C61.6598 58.4322 61.4627 58.4886 61.3119 58.5586C61.1611 58.6257 61.0518 58.7064 60.9841 58.8009C60.9194 58.8953 60.8871 58.9989 60.8871 59.1116C60.8871 59.2213 60.904 59.3158 60.9379 59.395C60.9748 59.4712 61.0241 59.5351 61.0857 59.5869C61.1503 59.6357 61.2242 59.6723 61.3073 59.6966C61.3935 59.718 61.4874 59.7286 61.589 59.7286C61.8475 59.7286 62.0692 59.6814 62.2539 59.5869C62.4416 59.4894 62.6233 59.3493 62.7987 59.1665V58.3027ZM60.1668 56.3284C60.6993 55.8379 61.3335 55.5926 62.0692 55.5926C62.3401 55.5926 62.5802 55.6368 62.7895 55.7251C63.0019 55.8104 63.1789 55.9323 63.3205 56.0907C63.4652 56.2492 63.5744 56.4381 63.6483 56.6574C63.7253 56.8738 63.7637 57.1145 63.7637 57.3795V60.341H63.3205C63.2251 60.341 63.1527 60.3273 63.1035 60.2999C63.0542 60.2694 63.0127 60.21 62.9788 60.1217L62.8818 59.7423C62.7618 59.849 62.6433 59.9449 62.5263 60.0302C62.4093 60.1125 62.2877 60.1826 62.1615 60.2405C62.0384 60.2984 61.9045 60.341 61.7598 60.3684C61.6182 60.3989 61.4612 60.4141 61.2888 60.4141C61.098 60.4141 60.9194 60.3882 60.7532 60.3364C60.5901 60.2847 60.4485 60.207 60.3284 60.1034C60.2084 59.9967 60.1129 59.8657 60.0421 59.7103C59.9744 59.555 59.9405 59.3721 59.9405 59.1619C59.9405 58.9822 59.9883 58.807 60.0837 58.6363C60.1822 58.4657 60.3423 58.3134 60.5639 58.1793C60.7886 58.0422 61.0826 57.9295 61.4458 57.8411C61.8121 57.7528 62.2631 57.7025 62.7987 57.6903V57.3795C62.7987 57.0444 62.7264 56.7946 62.5817 56.63C62.437 56.4655 62.2246 56.3832 61.9445 56.3832C61.7536 56.3832 61.5936 56.4076 61.4643 56.4564C61.335 56.5021 61.2226 56.5523 61.1272 56.6072C61.0318 56.662 60.9471 56.7138 60.8733 56.7626C60.7994 56.8083 60.7209 56.8311 60.6378 56.8311C60.5701 56.8311 60.5116 56.8144 60.4623 56.7808C60.4161 56.7443 60.3777 56.7001 60.3469 56.6483L60.1668 56.3284Z" fill="url(#paint19_linear_8071_197571)"/>
<path d="M66.6074 57.9691C66.9152 57.9691 67.1461 57.8914 67.3 57.736C67.4539 57.5806 67.5309 57.378 67.5309 57.1282C67.5309 56.8722 67.4539 56.6696 67.3 56.5203C67.1461 56.371 66.9152 56.2964 66.6074 56.2964C66.3027 56.2964 66.0718 56.371 65.9148 56.5203C65.7609 56.6696 65.6839 56.8722 65.6839 57.1282C65.6839 57.25 65.7039 57.3628 65.744 57.4664C65.784 57.57 65.8425 57.6598 65.9194 57.736C65.9964 57.8091 66.0918 57.867 66.2057 57.9097C66.3227 57.9493 66.4566 57.9691 66.6074 57.9691ZM67.988 60.5695C67.988 60.4659 67.9572 60.3837 67.8957 60.3227C67.8372 60.2588 67.7571 60.21 67.6556 60.1765C67.554 60.1399 67.4355 60.114 67.3 60.0988C67.1646 60.0805 67.0199 60.0683 66.866 60.0622C66.7152 60.0531 66.5597 60.0455 66.3996 60.0394C66.2426 60.0302 66.0903 60.015 65.9425 59.9937C65.7947 60.0699 65.6732 60.1613 65.5777 60.2679C65.4854 60.3745 65.4392 60.4979 65.4392 60.6381C65.4392 60.7295 65.4623 60.8148 65.5085 60.894C65.5577 60.9732 65.6316 61.0418 65.7301 61.0997C65.8317 61.1576 65.9594 61.2033 66.1133 61.2368C66.2703 61.2703 66.4581 61.2871 66.6767 61.2871C67.1138 61.2871 67.4416 61.22 67.6602 61.086C67.8787 60.9519 67.988 60.7798 67.988 60.5695ZM68.9854 55.8485V56.2141C68.9854 56.336 68.9115 56.4107 68.7637 56.4381L68.2928 56.5158C68.3728 56.6925 68.4128 56.889 68.4128 57.1053C68.4128 57.3338 68.3666 57.541 68.2743 57.7269C68.185 57.9127 68.0604 58.0712 67.9003 58.2022C67.7402 58.3332 67.5494 58.4337 67.3277 58.5038C67.1061 58.5739 66.866 58.6089 66.6074 58.6089C66.5089 58.6089 66.4119 58.6044 66.3165 58.5952C66.2242 58.583 66.1334 58.5678 66.0441 58.5495C65.9548 58.6013 65.8886 58.6561 65.8455 58.714C65.8024 58.7719 65.7809 58.8313 65.7809 58.8923C65.7809 58.9928 65.8255 59.0675 65.9148 59.1162C66.0041 59.165 66.121 59.2 66.2657 59.2213C66.4135 59.2427 66.5812 59.2564 66.769 59.2625C66.9568 59.2685 67.1476 59.2792 67.3416 59.2944C67.5355 59.3097 67.7264 59.3356 67.9141 59.3721C68.1019 59.4057 68.2681 59.4635 68.4128 59.5458C68.5606 59.625 68.6791 59.7332 68.7684 59.8703C68.8576 60.0074 68.9023 60.1856 68.9023 60.405C68.9023 60.6061 68.8515 60.8026 68.7499 60.9946C68.6483 61.1865 68.5005 61.3571 68.3066 61.5064C68.1158 61.6557 67.8818 61.7745 67.6048 61.8629C67.3277 61.9543 67.0122 62 66.6582 62C66.3073 62 66.001 61.9665 65.7393 61.8995C65.4808 61.8324 65.2637 61.741 65.0883 61.6252C64.9159 61.5125 64.7866 61.3815 64.7004 61.2322C64.6173 61.0829 64.5758 60.9275 64.5758 60.766C64.5758 60.5467 64.645 60.3593 64.7835 60.2039C64.9251 60.0485 65.116 59.9267 65.3561 59.8383C65.2268 59.7774 65.1222 59.6936 65.0421 59.5869C64.9652 59.4803 64.9267 59.3402 64.9267 59.1665C64.9267 59.0294 64.9775 58.8862 65.0791 58.7369C65.1806 58.5876 65.333 58.4611 65.5362 58.3576C65.3022 58.2296 65.1175 58.0605 64.9821 57.8503C64.8466 57.637 64.7789 57.3887 64.7789 57.1053C64.7789 56.8738 64.8236 56.6651 64.9128 56.4792C65.0052 56.2934 65.1329 56.1349 65.2961 56.0039C65.4592 55.8729 65.6516 55.7724 65.8732 55.7023C66.098 55.6322 66.3427 55.5972 66.6074 55.5972C67.0137 55.5972 67.3677 55.6809 67.6694 55.8485H68.9854Z" fill="url(#paint20_linear_8071_197571)"/>
<path d="M72.7774 57.4847C72.7774 57.3201 72.7528 57.1678 72.7035 57.0276C72.6573 56.8844 72.5881 56.761 72.4957 56.6574C72.4034 56.5508 72.288 56.4685 72.1494 56.4107C72.014 56.3497 71.857 56.3193 71.6785 56.3193C71.3183 56.3193 71.0351 56.4213 70.8289 56.6255C70.6226 56.8296 70.4918 57.116 70.4364 57.4847H72.7774ZM70.4087 58.0879C70.421 58.353 70.4625 58.583 70.5333 58.778C70.6041 58.97 70.698 59.1299 70.815 59.2579C70.9351 59.3858 71.0767 59.4818 71.2398 59.5458C71.406 59.6067 71.5907 59.6372 71.7939 59.6372C71.9878 59.6372 72.1556 59.6159 72.2972 59.5732C72.4388 59.5275 72.5619 59.4788 72.6666 59.427C72.7712 59.3721 72.8605 59.3234 72.9344 59.2807C73.0083 59.235 73.076 59.2122 73.1376 59.2122C73.2176 59.2122 73.2792 59.2427 73.3223 59.3036L73.6039 59.6646C73.4869 59.8017 73.3546 59.9175 73.2068 60.012C73.0591 60.1064 72.9021 60.1841 72.7358 60.245C72.5696 60.3029 72.3988 60.3441 72.2233 60.3684C72.0479 60.3959 71.877 60.4096 71.7108 60.4096C71.3845 60.4096 71.0813 60.3563 70.8012 60.2496C70.5241 60.1399 70.2825 59.98 70.0762 59.7697C69.8731 59.5595 69.713 59.299 69.596 58.9882C69.4821 58.6775 69.4252 58.3195 69.4252 57.9142C69.4252 57.5913 69.476 57.2897 69.5775 57.0094C69.6822 56.729 69.83 56.4853 70.0208 56.2781C70.2147 56.0709 70.4487 55.9079 70.7227 55.7891C70.9997 55.6672 71.3122 55.6063 71.66 55.6063C71.9494 55.6063 72.2172 55.6535 72.4634 55.748C72.7097 55.8394 72.9221 55.975 73.1006 56.1547C73.2792 56.3345 73.4177 56.5554 73.5162 56.8174C73.6178 57.0764 73.6686 57.3719 73.6686 57.704C73.6686 57.8564 73.6516 57.9584 73.6178 58.0102C73.5839 58.062 73.5223 58.0879 73.4331 58.0879H70.4087Z" fill="url(#paint21_linear_8071_197571)"/>
<path d="M74.5943 60.341V55.6794H75.1946C75.33 55.6794 75.4162 55.7419 75.4532 55.8668L75.5178 56.2735C75.604 56.1761 75.6933 56.0877 75.7856 56.0085C75.878 55.9262 75.9765 55.8561 76.0811 55.7983C76.1889 55.7373 76.3028 55.6901 76.4228 55.6566C76.546 55.6231 76.6783 55.6063 76.8199 55.6063C76.9708 55.6063 77.1093 55.6276 77.2355 55.6703C77.3617 55.7129 77.4725 55.7739 77.5679 55.8531C77.6665 55.9323 77.7511 56.0283 77.8219 56.141C77.8927 56.2537 77.9512 56.3802 77.9974 56.5203C78.0682 56.3589 78.1574 56.2202 78.2652 56.1045C78.3729 55.9887 78.493 55.8942 78.6253 55.8211C78.7577 55.748 78.8978 55.6947 79.0455 55.6611C79.1963 55.6246 79.3487 55.6063 79.5026 55.6063C79.7551 55.6063 79.9798 55.6459 80.1768 55.7251C80.3769 55.8043 80.5446 55.9201 80.6801 56.0725C80.8186 56.2218 80.9232 56.4061 80.994 56.6255C81.0648 56.8448 81.1002 57.0947 81.1002 57.375V60.341H80.1075V57.375C80.1075 57.0459 80.0352 56.7991 79.8905 56.6346C79.7489 56.467 79.538 56.3832 79.2579 56.3832C79.1317 56.3832 79.0132 56.4046 78.9024 56.4472C78.7916 56.4899 78.6946 56.5523 78.6115 56.6346C78.5284 56.7169 78.4622 56.8205 78.4129 56.9454C78.3668 57.0672 78.3437 57.2104 78.3437 57.375V60.341H77.3509V57.375C77.3509 57.0337 77.2817 56.7839 77.1431 56.6255C77.0046 56.464 76.8015 56.3832 76.5336 56.3832C76.349 56.3832 76.1781 56.4305 76.0211 56.5249C75.8641 56.6163 75.7194 56.7428 75.5871 56.9042V60.341H74.5943Z" fill="url(#paint22_linear_8071_197571)"/>
<path d="M85.349 57.4847C85.349 57.3201 85.3243 57.1678 85.2751 57.0276C85.2289 56.8844 85.1597 56.761 85.0673 56.6574C84.975 56.5508 84.8595 56.4685 84.721 56.4107C84.5856 56.3497 84.4286 56.3193 84.25 56.3193C83.8899 56.3193 83.6067 56.4213 83.4004 56.6255C83.1942 56.8296 83.0634 57.116 83.0079 57.4847H85.349ZM82.9802 58.0879C82.9926 58.353 83.0341 58.583 83.1049 58.778C83.1757 58.97 83.2696 59.1299 83.3866 59.2579C83.5066 59.3858 83.6482 59.4818 83.8114 59.5458C83.9776 59.6067 84.1623 59.6372 84.3655 59.6372C84.5594 59.6372 84.7272 59.6159 84.8688 59.5732C85.0104 59.5275 85.1335 59.4788 85.2381 59.427C85.3428 59.3721 85.4321 59.3234 85.506 59.2807C85.5798 59.235 85.6476 59.2122 85.7091 59.2122C85.7892 59.2122 85.8507 59.2427 85.8938 59.3036L86.1755 59.6646C86.0585 59.8017 85.9261 59.9175 85.7784 60.012C85.6306 60.1064 85.4736 60.1841 85.3074 60.245C85.1412 60.3029 84.9703 60.3441 84.7949 60.3684C84.6194 60.3959 84.4486 60.4096 84.2824 60.4096C83.9561 60.4096 83.6528 60.3563 83.3727 60.2496C83.0957 60.1399 82.854 59.98 82.6478 59.7697C82.4446 59.5595 82.2846 59.299 82.1676 58.9882C82.0537 58.6775 81.9967 58.3195 81.9967 57.9142C81.9967 57.5913 82.0475 57.2897 82.1491 57.0094C82.2538 56.729 82.4015 56.4853 82.5924 56.2781C82.7863 56.0709 83.0203 55.9079 83.2942 55.7891C83.5713 55.6672 83.8837 55.6063 84.2316 55.6063C84.5209 55.6063 84.7887 55.6535 85.035 55.748C85.2812 55.8394 85.4936 55.975 85.6722 56.1547C85.8507 56.3345 85.9892 56.5554 86.0878 56.8174C86.1893 57.0764 86.2401 57.3719 86.2401 57.704C86.2401 57.8564 86.2232 57.9584 86.1893 58.0102C86.1555 58.062 86.0939 58.0879 86.0046 58.0879H82.9802Z" fill="url(#paint23_linear_8071_197571)"/>
<path d="M88.094 56.2964C88.1956 56.1928 88.3003 56.0999 88.408 56.0176C88.5188 55.9323 88.6358 55.8592 88.7589 55.7983C88.882 55.7373 89.0129 55.6901 89.1514 55.6566C89.2899 55.6231 89.4407 55.6063 89.6039 55.6063C89.8625 55.6063 90.0887 55.649 90.2827 55.7343C90.4797 55.8196 90.6443 55.9399 90.7767 56.0953C90.9122 56.2507 91.0137 56.4381 91.0815 56.6574C91.1492 56.8738 91.183 57.1129 91.183 57.375V60.341H90.1949V57.375C90.1949 57.0611 90.121 56.8174 89.9733 56.6437C89.8286 56.4701 89.607 56.3832 89.3084 56.3832C89.0867 56.3832 88.8805 56.4335 88.6897 56.5341C88.5019 56.6346 88.3249 56.7717 88.1587 56.9454V60.341H87.1659V55.6794H87.7662C87.9016 55.6794 87.9878 55.7419 88.0247 55.8668L88.094 56.2964Z" fill="url(#paint24_linear_8071_197571)"/>
<path d="M93.7892 60.4141C93.3983 60.4141 93.0966 60.306 92.8842 60.0897C92.6749 59.8703 92.5702 59.5626 92.5702 59.1665V56.4518H92.0531C91.9977 56.4518 91.9499 56.435 91.9099 56.4015C91.8699 56.365 91.8499 56.3116 91.8499 56.2416V55.844L92.6118 55.7343L92.8288 54.3861C92.8442 54.3343 92.8703 54.2931 92.9073 54.2627C92.9442 54.2292 92.9935 54.2124 93.055 54.2124H93.5629V55.7434H94.8697V56.4518H93.5629V59.0979C93.5629 59.2655 93.6045 59.3935 93.6876 59.4818C93.7707 59.5702 93.8816 59.6144 94.0201 59.6144C94.097 59.6144 94.1632 59.6052 94.2186 59.5869C94.274 59.5656 94.3217 59.5443 94.3618 59.523C94.4018 59.4986 94.4356 59.4773 94.4633 59.459C94.4941 59.4376 94.5234 59.427 94.5511 59.427C94.6065 59.427 94.6511 59.4574 94.685 59.5184L94.9805 59.9983C94.8266 60.1323 94.645 60.2359 94.4356 60.309C94.2263 60.3791 94.0108 60.4141 93.7892 60.4141Z" fill="url(#paint25_linear_8071_197571)"/>
<path d="M101.613 54.8842C101.58 54.9391 101.544 54.9802 101.507 55.0076C101.47 55.032 101.424 55.0442 101.369 55.0442C101.31 55.0442 101.244 55.0198 101.17 54.971C101.099 54.9223 101.01 54.869 100.902 54.8111C100.798 54.7502 100.673 54.6953 100.528 54.6466C100.384 54.5948 100.211 54.5689 100.011 54.5689C99.8265 54.5689 99.6634 54.5917 99.5218 54.6374C99.3832 54.6831 99.2663 54.7471 99.1708 54.8294C99.0754 54.9116 99.0031 55.0091 98.9538 55.1219C98.9077 55.2315 98.8846 55.3519 98.8846 55.4829C98.8846 55.6505 98.9292 55.7906 99.0185 55.9034C99.1077 56.0131 99.2247 56.1075 99.3694 56.1867C99.5171 56.2659 99.6849 56.336 99.8727 56.3969C100.06 56.4548 100.251 56.5173 100.445 56.5843C100.642 56.6514 100.835 56.7275 101.022 56.8128C101.21 56.8981 101.376 57.0063 101.521 57.1373C101.669 57.2683 101.787 57.4283 101.877 57.6172C101.966 57.8061 102.011 58.0361 102.011 58.3073C102.011 58.5998 101.96 58.874 101.858 59.1299C101.757 59.3859 101.609 59.6098 101.415 59.8017C101.224 59.9906 100.987 60.1399 100.704 60.2496C100.424 60.3593 100.104 60.4141 99.7434 60.4141C99.531 60.4141 99.3232 60.3928 99.12 60.3502C98.92 60.3106 98.7276 60.2542 98.5429 60.1811C98.3613 60.1049 98.1904 60.0135 98.0303 59.9069C97.8703 59.8002 97.7271 59.6814 97.6009 59.5504L97.9149 59.0385C97.9426 58.9959 97.978 58.9623 98.0211 58.938C98.0642 58.9136 98.1119 58.9014 98.1643 58.9014C98.2351 58.9014 98.3135 58.9349 98.3997 59.002C98.4859 59.0659 98.5891 59.1375 98.7091 59.2168C98.8322 59.2929 98.98 59.3645 99.1524 59.4316C99.3248 59.4955 99.531 59.5275 99.7711 59.5275C100.162 59.5275 100.464 59.4331 100.676 59.2442C100.892 59.0553 100.999 58.7948 100.999 58.4627C100.999 58.2768 100.955 58.126 100.865 58.0102C100.776 57.8914 100.658 57.7924 100.51 57.7132C100.365 57.6339 100.199 57.5669 100.011 57.5121C99.8234 57.4572 99.6326 57.3993 99.4386 57.3384C99.2447 57.2744 99.0539 57.2013 98.8661 57.119C98.6783 57.0337 98.5106 56.924 98.3628 56.79C98.2181 56.6529 98.1011 56.4853 98.0119 56.2873C97.9226 56.0862 97.878 55.8363 97.878 55.5377C97.878 55.3001 97.9241 55.0701 98.0165 54.8476C98.1119 54.6252 98.2489 54.4287 98.4274 54.2581C98.6091 54.0844 98.8322 53.9458 99.097 53.8422C99.3617 53.7386 99.6634 53.6868 100.002 53.6868C100.384 53.6868 100.733 53.7462 101.05 53.8651C101.37 53.9839 101.646 54.153 101.877 54.3724L101.613 54.8842Z" fill="url(#paint26_linear_8071_197571)"/>
<path d="M106.937 55.6794L104.342 61.6664C104.309 61.7365 104.267 61.7913 104.218 61.8309C104.172 61.8705 104.099 61.8903 104.001 61.8903H103.267L104.135 60.0257L102.214 55.6794H103.077C103.16 55.6794 103.223 55.6992 103.267 55.7388C103.313 55.7754 103.347 55.8196 103.368 55.8714L104.49 58.5175C104.518 58.5937 104.542 58.6699 104.564 58.746C104.589 58.8191 104.612 58.8953 104.633 58.9745C104.658 58.8953 104.683 58.8176 104.707 58.7415C104.732 58.6653 104.759 58.5891 104.79 58.5129L105.866 55.8714C105.888 55.8165 105.923 55.7708 105.972 55.7343C106.025 55.6977 106.082 55.6794 106.143 55.6794H106.937Z" fill="url(#paint27_linear_8071_197571)"/>
<path d="M110.305 56.5249C110.281 56.5676 110.253 56.598 110.222 56.6163C110.191 56.6346 110.153 56.6437 110.107 56.6437C110.054 56.6437 109.997 56.6285 109.936 56.598C109.874 56.5645 109.802 56.528 109.719 56.4884C109.636 56.4487 109.537 56.4137 109.423 56.3832C109.313 56.3497 109.182 56.333 109.031 56.333C108.908 56.333 108.795 56.3482 108.694 56.3787C108.595 56.4061 108.511 56.4472 108.44 56.5021C108.372 56.5539 108.32 56.6163 108.283 56.6894C108.246 56.7595 108.227 56.8357 108.227 56.9179C108.227 57.0276 108.261 57.119 108.329 57.1922C108.397 57.2653 108.486 57.3293 108.597 57.3841C108.708 57.4359 108.834 57.4831 108.975 57.5258C109.117 57.5684 109.262 57.6141 109.409 57.6629C109.557 57.7116 109.702 57.768 109.844 57.832C109.985 57.896 110.111 57.9752 110.222 58.0696C110.333 58.161 110.422 58.2738 110.49 58.4078C110.558 58.5388 110.592 58.6988 110.592 58.8877C110.592 59.1071 110.552 59.3097 110.471 59.4955C110.391 59.6814 110.274 59.8429 110.121 59.98C109.967 60.1171 109.774 60.2237 109.543 60.2999C109.316 60.3761 109.054 60.4141 108.758 60.4141C108.595 60.4141 108.437 60.3989 108.283 60.3684C108.132 60.341 107.987 60.3029 107.849 60.2542C107.713 60.2024 107.586 60.1415 107.466 60.0714C107.349 60.0013 107.244 59.9251 107.152 59.8429L107.382 59.4681C107.41 59.4224 107.444 59.3874 107.484 59.363C107.527 59.3356 107.579 59.3219 107.641 59.3219C107.706 59.3219 107.769 59.3432 107.83 59.3859C107.895 59.4255 107.969 59.4696 108.052 59.5184C108.138 59.5671 108.241 59.6128 108.361 59.6555C108.481 59.6951 108.631 59.7149 108.809 59.7149C108.957 59.7149 109.085 59.6981 109.192 59.6646C109.3 59.6281 109.389 59.5793 109.46 59.5184C109.531 59.4574 109.583 59.3889 109.617 59.3127C109.651 59.2335 109.668 59.1497 109.668 59.0614C109.668 58.9425 109.634 58.845 109.566 58.7689C109.499 58.6927 109.408 58.6272 109.294 58.5724C109.183 58.5175 109.055 58.4688 108.911 58.4261C108.769 58.3835 108.625 58.3378 108.477 58.289C108.329 58.2403 108.183 58.1839 108.038 58.1199C107.897 58.0559 107.769 57.9752 107.655 57.8777C107.544 57.7771 107.455 57.6568 107.387 57.5166C107.319 57.3734 107.285 57.1998 107.285 56.9956C107.285 56.8098 107.322 56.6331 107.396 56.4655C107.473 56.2979 107.584 56.1502 107.729 56.0222C107.877 55.8942 108.057 55.7937 108.269 55.7206C108.484 55.6444 108.732 55.6063 109.012 55.6063C109.329 55.6063 109.617 55.6566 109.876 55.7571C110.134 55.8577 110.351 55.9948 110.527 56.1684L110.305 56.5249Z" fill="url(#paint28_linear_8071_197571)"/>
<path d="M113.034 60.4141C112.643 60.4141 112.342 60.306 112.129 60.0897C111.92 59.8703 111.815 59.5626 111.815 59.1665V56.4518H111.298C111.243 56.4518 111.195 56.435 111.155 56.4015C111.115 56.365 111.095 56.3116 111.095 56.2416V55.844L111.857 55.7343L112.074 54.3861C112.089 54.3343 112.115 54.2931 112.152 54.2627C112.189 54.2292 112.239 54.2124 112.3 54.2124H112.808V55.7434H114.115V56.4518H112.808V59.0979C112.808 59.2655 112.85 59.3935 112.933 59.4818C113.016 59.5702 113.127 59.6144 113.265 59.6144C113.342 59.6144 113.408 59.6052 113.464 59.5869C113.519 59.5656 113.567 59.5443 113.607 59.523C113.647 59.4986 113.681 59.4773 113.708 59.459C113.739 59.4376 113.769 59.427 113.796 59.427C113.852 59.427 113.896 59.4574 113.93 59.5184L114.226 59.9983C114.072 60.1323 113.89 60.2359 113.681 60.309C113.471 60.3791 113.256 60.4141 113.034 60.4141Z" fill="url(#paint29_linear_8071_197571)"/>
<path d="M117.95 57.4847C117.95 57.3201 117.926 57.1678 117.876 57.0276C117.83 56.8844 117.761 56.761 117.669 56.6574C117.576 56.5508 117.461 56.4685 117.322 56.4107C117.187 56.3497 117.03 56.3193 116.851 56.3193C116.491 56.3193 116.208 56.4213 116.002 56.6255C115.795 56.8296 115.665 57.116 115.609 57.4847H117.95ZM115.582 58.0879C115.594 58.353 115.635 58.583 115.706 58.778C115.777 58.97 115.871 59.1299 115.988 59.2579C116.108 59.3858 116.25 59.4818 116.413 59.5458C116.579 59.6067 116.764 59.6372 116.967 59.6372C117.161 59.6372 117.328 59.6159 117.47 59.5732C117.612 59.5275 117.735 59.4788 117.839 59.427C117.944 59.3721 118.033 59.3234 118.107 59.2807C118.181 59.235 118.249 59.2122 118.31 59.2122C118.39 59.2122 118.452 59.2427 118.495 59.3036L118.777 59.6646C118.66 59.8017 118.527 59.9175 118.38 60.012C118.232 60.1064 118.075 60.1841 117.909 60.245C117.742 60.3029 117.572 60.3441 117.396 60.3684C117.221 60.3959 117.05 60.4096 116.884 60.4096C116.557 60.4096 116.254 60.3563 115.974 60.2496C115.697 60.1399 115.455 59.98 115.249 59.7697C115.046 59.5595 114.886 59.299 114.769 58.9882C114.655 58.6775 114.598 58.3195 114.598 57.9142C114.598 57.5913 114.649 57.2897 114.75 57.0094C114.855 56.729 115.003 56.4853 115.194 56.2781C115.388 56.0709 115.622 55.9079 115.896 55.7891C116.173 55.6672 116.485 55.6063 116.833 55.6063C117.122 55.6063 117.39 55.6535 117.636 55.748C117.883 55.8394 118.095 55.975 118.273 56.1547C118.452 56.3345 118.591 56.5554 118.689 56.8174C118.791 57.0764 118.841 57.3719 118.841 57.704C118.841 57.8564 118.825 57.9584 118.791 58.0102C118.757 58.062 118.695 58.0879 118.606 58.0879H115.582Z" fill="url(#paint30_linear_8071_197571)"/>
<path d="M119.767 60.341V55.6794H120.367C120.503 55.6794 120.589 55.7419 120.626 55.8668L120.691 56.2735C120.777 56.1761 120.866 56.0877 120.959 56.0085C121.051 55.9262 121.149 55.8561 121.254 55.7983C121.362 55.7373 121.476 55.6901 121.596 55.6566C121.719 55.6231 121.851 55.6063 121.993 55.6063C122.144 55.6063 122.282 55.6276 122.408 55.6703C122.535 55.7129 122.645 55.7739 122.741 55.8531C122.839 55.9323 122.924 56.0283 122.995 56.141C123.066 56.2537 123.124 56.3802 123.17 56.5203C123.241 56.3589 123.33 56.2202 123.438 56.1045C123.546 55.9887 123.666 55.8942 123.798 55.8211C123.931 55.748 124.071 55.6947 124.218 55.6611C124.369 55.6246 124.522 55.6063 124.676 55.6063C124.928 55.6063 125.153 55.6459 125.35 55.7251C125.55 55.8043 125.717 55.9201 125.853 56.0725C125.991 56.2218 126.096 56.4061 126.167 56.6255C126.238 56.8448 126.273 57.0947 126.273 57.375V60.341H125.28V57.375C125.28 57.0459 125.208 56.7991 125.063 56.6346C124.922 56.467 124.711 56.3832 124.431 56.3832C124.305 56.3832 124.186 56.4046 124.075 56.4472C123.964 56.4899 123.867 56.5523 123.784 56.6346C123.701 56.7169 123.635 56.8205 123.586 56.9454C123.54 57.0672 123.517 57.2104 123.517 57.375V60.341H122.524V57.375C122.524 57.0337 122.455 56.7839 122.316 56.6255C122.178 56.464 121.974 56.3832 121.707 56.3832C121.522 56.3832 121.351 56.4305 121.194 56.5249C121.037 56.6163 120.892 56.7428 120.76 56.9042V60.341H119.767Z" fill="url(#paint31_linear_8071_197571)"/>
<defs>
<linearGradient id="paint0_linear_8071_197571" x1="8.20435" y1="35.2964" x2="127.999" y2="37.1106" gradientUnits="userSpaceOnUse">
<stop stop-color="#5FCBF9"/>
<stop offset="1" stop-color="#34E4DA"/>
</linearGradient>
<linearGradient id="paint1_linear_8071_197571" x1="8.20435" y1="35.2964" x2="127.999" y2="37.1106" gradientUnits="userSpaceOnUse">
<stop stop-color="#5FCBF9"/>
<stop offset="1" stop-color="#34E4DA"/>
</linearGradient>
<linearGradient id="paint2_linear_8071_197571" x1="8.20435" y1="35.2964" x2="127.999" y2="37.1106" gradientUnits="userSpaceOnUse">
<stop stop-color="#5FCBF9"/>
<stop offset="1" stop-color="#34E4DA"/>
</linearGradient>
<linearGradient id="paint3_linear_8071_197571" x1="8.20435" y1="35.2964" x2="127.999" y2="37.1106" gradientUnits="userSpaceOnUse">
<stop stop-color="#5FCBF9"/>
<stop offset="1" stop-color="#34E4DA"/>
</linearGradient>
<linearGradient id="paint4_linear_8071_197571" x1="8.20435" y1="35.2964" x2="127.999" y2="37.1106" gradientUnits="userSpaceOnUse">
<stop stop-color="#5FCBF9"/>
<stop offset="1" stop-color="#34E4DA"/>
</linearGradient>
<linearGradient id="paint5_linear_8071_197571" x1="8.20435" y1="35.2964" x2="127.999" y2="37.1106" gradientUnits="userSpaceOnUse">
<stop stop-color="#5FCBF9"/>
<stop offset="1" stop-color="#34E4DA"/>
</linearGradient>
<linearGradient id="paint6_linear_8071_197571" x1="8.20435" y1="35.2964" x2="127.999" y2="37.1106" gradientUnits="userSpaceOnUse">
<stop stop-color="#5FCBF9"/>
<stop offset="1" stop-color="#34E4DA"/>
</linearGradient>
<linearGradient id="paint7_linear_8071_197571" x1="8.20435" y1="35.2964" x2="127.999" y2="37.1106" gradientUnits="userSpaceOnUse">
<stop stop-color="#5FCBF9"/>
<stop offset="1" stop-color="#34E4DA"/>
</linearGradient>
<linearGradient id="paint8_linear_8071_197571" x1="8.20435" y1="35.2964" x2="127.999" y2="37.1106" gradientUnits="userSpaceOnUse">
<stop stop-color="#5FCBF9"/>
<stop offset="1" stop-color="#34E4DA"/>
</linearGradient>
<linearGradient id="paint9_linear_8071_197571" x1="8.20435" y1="35.2964" x2="127.999" y2="37.1106" gradientUnits="userSpaceOnUse">
<stop stop-color="#5FCBF9"/>
<stop offset="1" stop-color="#34E4DA"/>
</linearGradient>
<linearGradient id="paint10_linear_8071_197571" x1="8.20435" y1="35.2964" x2="127.999" y2="37.1106" gradientUnits="userSpaceOnUse">
<stop stop-color="#5FCBF9"/>
<stop offset="1" stop-color="#34E4DA"/>
</linearGradient>
<linearGradient id="paint11_linear_8071_197571" x1="8.20435" y1="35.2964" x2="127.999" y2="37.1106" gradientUnits="userSpaceOnUse">
<stop stop-color="#5FCBF9"/>
<stop offset="1" stop-color="#34E4DA"/>
</linearGradient>
<linearGradient id="paint12_linear_8071_197571" x1="8.20435" y1="35.2964" x2="127.999" y2="37.1106" gradientUnits="userSpaceOnUse">
<stop stop-color="#5FCBF9"/>
<stop offset="1" stop-color="#34E4DA"/>
</linearGradient>
<linearGradient id="paint13_linear_8071_197571" x1="8.20435" y1="35.2964" x2="127.999" y2="37.1106" gradientUnits="userSpaceOnUse">
<stop stop-color="#5FCBF9"/>
<stop offset="1" stop-color="#34E4DA"/>
</linearGradient>
<linearGradient id="paint14_linear_8071_197571" x1="8.20435" y1="35.2964" x2="127.999" y2="37.1106" gradientUnits="userSpaceOnUse">
<stop stop-color="#5FCBF9"/>
<stop offset="1" stop-color="#34E4DA"/>
</linearGradient>
<linearGradient id="paint15_linear_8071_197571" x1="8.20435" y1="35.2964" x2="127.999" y2="37.1106" gradientUnits="userSpaceOnUse">
<stop stop-color="#5FCBF9"/>
<stop offset="1" stop-color="#34E4DA"/>
</linearGradient>
<linearGradient id="paint16_linear_8071_197571" x1="8.20435" y1="35.2964" x2="127.999" y2="37.1106" gradientUnits="userSpaceOnUse">
<stop stop-color="#5FCBF9"/>
<stop offset="1" stop-color="#34E4DA"/>
</linearGradient>
<linearGradient id="paint17_linear_8071_197571" x1="8.20435" y1="35.2964" x2="127.999" y2="37.1106" gradientUnits="userSpaceOnUse">
<stop stop-color="#5FCBF9"/>
<stop offset="1" stop-color="#34E4DA"/>
</linearGradient>
<linearGradient id="paint18_linear_8071_197571" x1="8.20435" y1="35.2964" x2="127.999" y2="37.1106" gradientUnits="userSpaceOnUse">
<stop stop-color="#5FCBF9"/>
<stop offset="1" stop-color="#34E4DA"/>
</linearGradient>
<linearGradient id="paint19_linear_8071_197571" x1="8.20435" y1="35.2964" x2="127.999" y2="37.1106" gradientUnits="userSpaceOnUse">
<stop stop-color="#5FCBF9"/>
<stop offset="1" stop-color="#34E4DA"/>
</linearGradient>
<linearGradient id="paint20_linear_8071_197571" x1="8.20435" y1="35.2964" x2="127.999" y2="37.1106" gradientUnits="userSpaceOnUse">
<stop stop-color="#5FCBF9"/>
<stop offset="1" stop-color="#34E4DA"/>
</linearGradient>
<linearGradient id="paint21_linear_8071_197571" x1="8.20435" y1="35.2964" x2="127.999" y2="37.1106" gradientUnits="userSpaceOnUse">
<stop stop-color="#5FCBF9"/>
<stop offset="1" stop-color="#34E4DA"/>
</linearGradient>
<linearGradient id="paint22_linear_8071_197571" x1="8.20435" y1="35.2964" x2="127.999" y2="37.1106" gradientUnits="userSpaceOnUse">
<stop stop-color="#5FCBF9"/>
<stop offset="1" stop-color="#34E4DA"/>
</linearGradient>
<linearGradient id="paint23_linear_8071_197571" x1="8.20435" y1="35.2964" x2="127.999" y2="37.1106" gradientUnits="userSpaceOnUse">
<stop stop-color="#5FCBF9"/>
<stop offset="1" stop-color="#34E4DA"/>
</linearGradient>
<linearGradient id="paint24_linear_8071_197571" x1="8.20435" y1="35.2964" x2="127.999" y2="37.1106" gradientUnits="userSpaceOnUse">
<stop stop-color="#5FCBF9"/>
<stop offset="1" stop-color="#34E4DA"/>
</linearGradient>
<linearGradient id="paint25_linear_8071_197571" x1="8.20435" y1="35.2964" x2="127.999" y2="37.1106" gradientUnits="userSpaceOnUse">
<stop stop-color="#5FCBF9"/>
<stop offset="1" stop-color="#34E4DA"/>
</linearGradient>
<linearGradient id="paint26_linear_8071_197571" x1="8.20435" y1="35.2964" x2="127.999" y2="37.1106" gradientUnits="userSpaceOnUse">
<stop stop-color="#5FCBF9"/>
<stop offset="1" stop-color="#34E4DA"/>
</linearGradient>
<linearGradient id="paint27_linear_8071_197571" x1="8.20435" y1="35.2964" x2="127.999" y2="37.1106" gradientUnits="userSpaceOnUse">
<stop stop-color="#5FCBF9"/>
<stop offset="1" stop-color="#34E4DA"/>
</linearGradient>
<linearGradient id="paint28_linear_8071_197571" x1="8.20435" y1="35.2964" x2="127.999" y2="37.1106" gradientUnits="userSpaceOnUse">
<stop stop-color="#5FCBF9"/>
<stop offset="1" stop-color="#34E4DA"/>
</linearGradient>
<linearGradient id="paint29_linear_8071_197571" x1="8.20435" y1="35.2964" x2="127.999" y2="37.1106" gradientUnits="userSpaceOnUse">
<stop stop-color="#5FCBF9"/>
<stop offset="1" stop-color="#34E4DA"/>
</linearGradient>
<linearGradient id="paint30_linear_8071_197571" x1="8.20435" y1="35.2964" x2="127.999" y2="37.1106" gradientUnits="userSpaceOnUse">
<stop stop-color="#5FCBF9"/>
<stop offset="1" stop-color="#34E4DA"/>
</linearGradient>
<linearGradient id="paint31_linear_8071_197571" x1="8.20435" y1="35.2964" x2="127.999" y2="37.1106" gradientUnits="userSpaceOnUse">
<stop stop-color="#5FCBF9"/>
<stop offset="1" stop-color="#34E4DA"/>
</linearGradient>
</defs>
</svg>
